<?xml version="1.0" standalone="no"?>
<!DOCTYPE svg PUBLIC "-//W3C//DTD SVG 20010904//EN"
 "http://www.w3.org/TR/2001/REC-SVG-20010904/DTD/svg10.dtd">
<svg version="1.0" xmlns="http://www.w3.org/2000/svg"
 width="404.000000pt" height="308.000000pt" viewBox="0 0 404.000000 308.000000"
 preserveAspectRatio="xMidYMid meet">

<g transform="translate(0.000000,308.000000) scale(0.100000,-0.100000)"
fill="#000000" stroke="none">
<path d="M1860 2724 c-19 -2 -75 -9 -125 -15 -425 -52 -834 -222 -1175 -488
-97 -75 -310 -278 -310 -295 0 -6 92 -103 204 -215 l205 -205 111 107 c277
268 535 405 924 489 88 19 131 22 336 22 217 0 244 -2 361 -27 170 -36 290
-77 434 -147 197 -95 371 -223 513 -374 34 -36 65 -66 69 -66 13 0 413 404
413 416 0 17 -213 220 -310 295 -333 259 -701 416 -1140 485 -91 14 -437 27
-510 18z"/>
<path d="M1862 1820 c-306 -39 -595 -171 -834 -382 -37 -33 -85 -81 -107 -107
l-40 -47 212 -212 212 -211 52 64 c61 75 169 159 268 208 361 180 806 101
1075 -190 l71 -77 211 211 212 212 -105 103 c-219 215 -497 362 -786 413 -106
20 -341 27 -441 15z"/>
<path d="M1915 916 c-150 -30 -266 -90 -377 -195 -21 -19 -38 -40 -38 -46 0
-13 522 -535 535 -535 6 0 129 119 275 265 227 227 263 268 254 283 -22 34
-143 128 -210 161 -136 68 -305 93 -439 67z"/>
</g>
</svg>
