<?xml version="1.0" standalone="no"?>
<!DOCTYPE svg PUBLIC "-//W3C//DTD SVG 20010904//EN"
 "http://www.w3.org/TR/2001/REC-SVG-20010904/DTD/svg10.dtd">
<svg version="1.0" xmlns="http://www.w3.org/2000/svg"
 width="410.000000pt" height="404.000000pt" viewBox="0 0 410.000000 404.000000"
 preserveAspectRatio="xMidYMid meet">

<g transform="translate(0.000000,404.000000) scale(0.100000,-0.100000)"
fill="#000000" stroke="none">
<path d="M355 3729 l-140 -139 1737 -1736 c956 -955 1742 -1734 1747 -1732 5
1 71 63 146 137 l138 134 -384 381 c-211 209 -996 992 -1744 1738 l-1361 1357
-139 -140z"/>
<path d="M1881 3180 c-52 -5 -95 -11 -97 -13 -3 -2 129 -136 291 -298 l295
-294 82 -17 c366 -77 687 -251 931 -507 42 -45 81 -81 85 -81 9 0 412 410 412
420 0 14 -225 225 -310 291 -333 259 -702 416 -1140 485 -118 18 -423 26 -549
14z"/>
<path d="M442 2524 c-73 -69 -132 -131 -132 -137 0 -7 92 -104 205 -217 l204
-204 103 100 c57 55 121 114 143 131 l40 32 -210 210 c-115 116 -212 211 -216
211 -3 0 -65 -57 -137 -126z"/>
<path d="M1180 1973 c-68 -52 -179 -154 -209 -192 l-31 -39 216 -207 215 -208
16 24 c31 47 155 160 209 190 30 17 54 34 54 38 0 10 -414 421 -425 421 -6 0
-26 -12 -45 -27z"/>
<path d="M1776 1307 c-45 -24 -109 -70 -148 -107 l-69 -65 262 -267 c143 -148
266 -268 271 -268 14 0 268 251 268 265 0 16 -473 485 -490 485 -8 0 -51 -19
-94 -43z"/>
</g>
</svg>
